# xmcd
#
# Track frame offsets: 
#        150
#        19124
#        41187
#        57298
#        77035
#        99708
#        116526
#        140385
#        159708
#        180166
#        200836
#        217735
#
# Disc length: 3091 seconds
#
# Revision: 0
# Processed by: cddbd v1.5.1PL0 Copyright (c) Steve Scherf et al.
# Submitted via: ExactAudioCopy v0.95a5
#
DISCID=a10c110c
DTITLE=Keith Sewell - Love Is A Journey
DYEAR=2005
DGENRE=Bluegrass
TTITLE0=Love Is A Journey
TTITLE1=Shambles
TTITLE2=Sawdust Hill
TTITLE3=Ripples On The Water
TTITLE4=We Go Around
TTITLE5=A Man Out Of Me
TTITLE6=Duncan Station
TTITLE7=Tell Me Again
TTITLE8=Love Is
TTITLE9=Back Where We Belong
TTITLE10=Misery And Happiness
TTITLE11=When Love Came Down
EXTD=
EXTT0=
EXTT1=
EXTT2=
EXTT3=
EXTT4=
EXTT5=
EXTT6=
EXTT7=
EXTT8=
EXTT9=
EXTT10=
EXTT11=
PLAYORDER=
